<?xml version="1.0" encoding="utf-8"?>
<!-- Generator: Adobe Illustrator 25.2.3, SVG Export Plug-In . SVG Version: 6.00 Build 0)  -->
<svg version="1.1" id="Layer_1" xmlns="http://www.w3.org/2000/svg" xmlns:xlink="http://www.w3.org/1999/xlink" x="0px" y="0px"
	 viewBox="0 0 151.71 46.57" style="enable-background:new 0 0 151.71 46.57;" xml:space="preserve">
<style type="text/css">
	.st0{fill:#773B8D;}
	.st1{fill:#FFFFFF;}
</style>
<g>
	<path d="M45.43,23.43c0-2.95,0.93-5.21,2.8-6.77c1.86-1.56,4.06-2.34,6.59-2.34c2.03,0,3.78,0.44,5.24,1.31v3.47
		c-1.32-0.94-2.89-1.42-4.71-1.42c-1.68,0-3.11,0.47-4.29,1.4c-1.18,0.93-1.77,2.33-1.77,4.2c0,1.82,0.58,3.21,1.75,4.16
		c1.17,0.96,2.58,1.44,4.23,1.44c1.79,0,3.45-0.44,4.96-1.31v3.51c-1.63,0.78-3.51,1.17-5.63,1.17c-2.48,0-4.63-0.76-6.45-2.28
		C46.34,28.44,45.43,26.26,45.43,23.43"/>
	<path d="M66.04,17.58c0.66-1.06,1.64-1.89,2.94-2.48c1.3-0.59,2.7-0.81,4.22-0.67v3.72c-1.51-0.21-2.88-0.01-4.11,0.6
		c-1.23,0.62-2.1,1.52-2.62,2.73v10.31h-3.79v-17h3.36V17.58z"/>
	<path d="M88.14,14.78h3.79v17h-3.36v-2.34c-1.56,1.87-3.53,2.8-5.92,2.8c-2.2,0-3.91-0.64-5.15-1.91
		c-1.24-1.28-1.86-2.95-1.86-5.03V14.78h3.79v10.03c0,2.72,1.32,4.07,3.97,4.07c1.86,0,3.45-0.94,4.75-2.83V14.78z"/>
	<path d="M98.24,17.12c1.56-1.86,3.53-2.8,5.92-2.8c2.13,0,3.83,0.64,5.1,1.93c1.27,1.29,1.91,2.96,1.91,5.01v10.52h-3.79V21.76
		c0-1.32-0.37-2.33-1.1-3.03c-0.73-0.7-1.69-1.05-2.87-1.05c-1.87,0-3.45,0.94-4.75,2.83v11.26h-3.79v-17h3.36V17.12z"/>
	<path d="M113.1,23.43c0-2.95,0.93-5.21,2.8-6.77c1.86-1.56,4.06-2.34,6.59-2.34c2.03,0,3.78,0.44,5.24,1.31v3.47
		c-1.32-0.94-2.89-1.42-4.71-1.42c-1.68,0-3.11,0.47-4.29,1.4c-1.18,0.93-1.77,2.33-1.77,4.2c0,1.82,0.58,3.21,1.75,4.16
		c1.17,0.96,2.58,1.44,4.23,1.44c1.79,0,3.45-0.44,4.96-1.31v3.51c-1.63,0.78-3.51,1.17-5.63,1.17c-2.48,0-4.63-0.76-6.45-2.28
		C114.01,28.44,113.1,26.26,113.1,23.43"/>
	<path d="M130.43,6.99h3.79v9.67c1.51-1.56,3.34-2.34,5.49-2.34c2.13,0,3.83,0.64,5.1,1.93c1.28,1.29,1.91,2.96,1.91,5.01v10.52
		h-3.79V21.76c0-1.32-0.37-2.33-1.1-3.03c-0.73-0.7-1.69-1.05-2.87-1.05c-1.86,0-3.45,0.95-4.75,2.83v11.26h-3.79V6.99z"/>
	<g>
		<polygon class="st0" points="19.58,29.45 19.58,22.44 13.86,29.45 		"/>
		<path class="st0" d="M22.18,3.43L4.99,13.36v19.85l17.19,9.93l17.19-9.93V13.36L22.18,3.43z M33.11,29.01H22.18v6.07h-2.6v-3.28
			h-8.72V29.5l8.55-10.49h2.76v5.9c0.43-0.83,1.07-1.57,1.92-2.23c0.48-0.36,1.39-0.95,2.71-1.76c1.34-0.77,2.19-1.32,2.58-1.67
			c0.63-0.61,0.94-1.3,0.94-2.05c0-0.69-0.28-1.22-0.84-1.58c-0.56-0.36-1.34-0.54-2.35-0.54c-1.7,0-3.26,0.58-4.96,1.71v-2.59
			c1.56-1.03,3.29-1.55,5.2-1.55c1.68,0,3.05,0.39,4.09,1.17c1.04,0.78,1.56,1.89,1.56,3.34c0,1.2-0.4,2.23-1.2,3.08
			c-0.8,0.85-1.89,1.68-3.27,2.49c-0.11,0.07-0.31,0.19-0.6,0.37c-0.29,0.18-0.49,0.3-0.62,0.38c-0.12,0.08-0.31,0.19-0.55,0.34
			c-0.25,0.15-0.43,0.27-0.56,0.34c-0.12,0.07-0.28,0.19-0.48,0.34s-0.34,0.28-0.43,0.39c-0.09,0.1-0.2,0.23-0.33,0.39
			c-0.12,0.15-0.21,0.29-0.27,0.42c-0.05,0.13-0.11,0.28-0.15,0.44c-0.05,0.16-0.07,0.32-0.07,0.48l8.61-0.02V29.01z"/>
	</g>
</g>
</svg>
