<svg width="359" height="76" viewBox="0 0 359 76" fill="none" xmlns="http://www.w3.org/2000/svg">
<path d="M72.3933 18.4025C78.0497 17.8817 83.4347 19.6942 87.6091 23.5692C94.3925 29.84 95.9788 40.1525 91.3035 47.59C85.9811 56.0692 76.8182 65.9442 69.513 71.0692L64.4828 74.59L70.5983 75.1733C83.6852 76.4442 96.6467 70.6733 104.411 60.1317C110.443 51.9442 112.843 41.9025 111.195 31.84C109.546 21.7983 104.056 13.0483 95.7283 7.21501C89.3832 2.75667 81.9945 0.61084 74.6267 0.61084C65.4221 0.61084 56.2592 3.96501 49.1001 10.2983L62.6043 22.1317C65.4429 20.0483 68.8242 18.7358 72.3933 18.4025Z" fill="#6EFE66"/>
<path d="M43.6943 16.215L24.3876 42.4234L24.9511 43.6317C25.7443 45.2984 26.8922 46.9025 28.3741 48.3817L28.5411 48.5275C31.5884 51.0275 34.6566 52.4234 37.6831 52.6525L38.9563 52.7567L58.4926 26.2567C59.6614 24.6734 61.0807 23.2775 62.6461 22.1317L49.1419 10.2983C47.1382 12.0483 45.3014 14.0067 43.6943 16.215Z" fill="url(#paint0_linear_302_276)"/>
<path d="M40.125 57.5693C34.4686 58.0901 29.0836 56.2776 24.9092 52.4026C18.1259 46.1526 16.5187 35.8193 21.1941 28.3818C26.5164 19.9026 35.6792 10.0276 42.9844 4.90261L48.0146 1.38177L41.92 0.777599C28.8332 -0.493235 15.8717 5.29844 8.08638 15.8401C2.05434 24.0276 -0.345946 34.0692 1.30295 44.1317C2.95185 54.1734 8.44121 62.9234 16.7692 68.7567C23.1351 73.2151 30.5238 75.3609 37.8916 75.3609C47.0962 75.3609 56.2591 72.0068 63.4182 65.6734L49.914 53.8401C47.0545 55.9026 43.6941 57.2151 40.125 57.5693Z" fill="#2DE4FD"/>
<path d="M68.8241 59.7358L88.1307 33.5275L87.5672 32.3192C86.7741 30.6525 85.6261 29.0483 84.1442 27.5692L83.9772 27.4233C80.9299 24.9233 77.8617 23.5275 74.8352 23.2984L73.562 23.1942L54.0257 49.6942C52.8569 51.2775 51.4376 52.6734 49.8722 53.8192L63.3764 65.6525C65.3802 63.9025 67.196 61.9442 68.8241 59.7358Z" fill="url(#paint1_linear_302_276)"/>
<path d="M214.82 17.5139C218.431 17.5139 221.145 14.7847 221.145 11.2847C221.145 7.68054 218.41 5.05554 214.82 5.05554C211.314 5.05554 208.58 7.68054 208.58 11.2847C208.58 14.8055 211.314 17.5139 214.82 17.5139ZM209.895 69.8473H219.746V25.0764H209.895V69.8473Z" fill="#0C3256"/>
<path d="M264.12 6.63892V32.0139C260.51 27.0973 254.978 24.0348 248.383 24.0348C235.713 24.0348 226.3 34.1389 226.3 47.4723C226.3 60.8056 235.713 70.9098 248.383 70.9098C254.978 70.9098 260.51 67.8473 264.12 62.9306V69.8681H273.972V6.63892H264.12ZM250.324 61.4098C242.33 61.4098 236.423 55.3473 236.423 47.4514C236.423 39.5556 242.309 33.4931 250.324 33.4931C258.234 33.4931 264.141 39.5556 264.141 47.4514C264.12 55.3473 258.234 61.4098 250.324 61.4098Z" fill="#0C3256"/>
<path d="M344.874 31.4098V24.1181H335.023V68.889H344.874V47.1181C344.874 38.8681 349.967 33.514 358.692 33.514V23.4098C352.973 23.4098 348.214 26.389 344.874 31.4098Z" fill="#0C3256"/>
<path d="M190.984 48.4306C187.749 55.8473 180.486 60.8056 171.615 60.8056C159.655 60.8056 150.514 51.6806 150.514 39.5556C150.514 27.4306 159.656 18.3056 171.636 18.3056C180.507 18.3056 187.77 23.264 191.005 30.6806H202.318C198.561 17.4723 186.601 8.22229 171.636 8.22229C153.519 8.22229 139.702 21.7431 139.702 39.5556C139.702 57.3681 153.519 70.889 171.636 70.889C186.622 70.889 198.582 61.6181 202.318 48.4306H190.984Z" fill="#0C3256"/>
<path d="M316.301 55.5555C314.13 58.8264 309.788 61.0555 304.55 61.0555C297.787 61.0555 292.506 56.7639 291.087 50.2639H328.198C328.365 49.2014 328.469 47.5347 328.469 46.5764C328.469 33.1389 318.179 23.0555 304.466 23.0555C290.837 23.0555 280.547 33.1597 280.547 46.493C280.547 59.8264 290.837 69.9305 304.466 69.9305C315.173 69.9305 323.731 64.0972 327.237 55.5555H316.301ZM304.445 31.9305C310.957 31.9305 316.238 36.0555 317.803 42.2014H291.171C292.84 36.0555 297.954 31.9305 304.445 31.9305Z" fill="#0C3256"/>
<defs>
<linearGradient id="paint0_linear_302_276" x1="53.1001" y1="18.9404" x2="30.8537" y2="49.9669" gradientUnits="userSpaceOnUse">
<stop stop-color="#6EFE66"/>
<stop offset="1" stop-color="#0C3256" stop-opacity="0"/>
</linearGradient>
<linearGradient id="paint1_linear_302_276" x1="59.4099" y1="57.0179" x2="81.6562" y2="25.9915" gradientUnits="userSpaceOnUse">
<stop stop-color="#2DE4FD"/>
<stop offset="1" stop-color="#0C3256" stop-opacity="0"/>
</linearGradient>
</defs>
</svg>
