<?xml version="1.0" encoding="UTF-8"?> <svg xmlns="http://www.w3.org/2000/svg" width="123" height="27" viewBox="0 0 123 27" fill="none"><path d="M25.4114 6.55031C27.3403 6.37237 29.1766 6.9916 30.6001 8.31546C32.9133 10.4578 33.4543 13.981 31.8599 16.522C30.045 19.4188 26.9204 22.7926 24.4292 24.5435L22.7139 25.7463L24.7993 25.9456C29.262 26.3798 33.682 24.4082 36.3298 20.8068C38.3867 18.0096 39.2053 14.5789 38.643 11.1411C38.0807 7.71047 36.2088 4.7211 33.3689 2.72819C31.2051 1.20503 28.6855 0.471924 26.173 0.471924C23.0342 0.471924 19.9096 1.61785 17.4683 3.78158L22.0733 7.82435C23.0413 7.1126 24.1943 6.66419 25.4114 6.55031Z" fill="#6EFE66"></path><path d="M15.6249 5.80288L9.04114 14.7568L9.23331 15.1696C9.50378 15.739 9.89524 16.287 10.4006 16.7924L10.4575 16.8422C11.4967 17.6963 12.543 18.1732 13.575 18.2515L14.0092 18.2871L20.6712 9.23354C21.0698 8.69261 21.5538 8.21573 22.0876 7.82427L17.4825 3.78149C16.7993 4.37937 16.1729 5.04842 15.6249 5.80288Z" fill="url(#paint0_linear_3174_26)"></path><path d="M14.4075 19.9313C12.4787 20.1093 10.6423 19.4901 9.21884 18.1662C6.90567 16.0309 6.35761 12.5006 7.95195 9.95966C9.76689 7.06282 12.8915 3.6891 15.3826 1.93819L17.098 0.735318L15.0196 0.528909C10.5569 0.0947381 6.13697 2.07342 3.48213 5.6749C1.42515 8.47209 0.606635 11.9027 1.16892 15.3405C1.73121 18.7712 3.60312 21.7605 6.44303 23.7535C8.61385 25.2766 11.1335 26.0097 13.646 26.0097C16.7848 26.0097 19.9094 24.8638 22.3507 22.7001L17.7457 18.6573C16.7706 19.3619 15.6246 19.8103 14.4075 19.9313Z" fill="#2DE4FD"></path><path d="M24.1939 20.6719L30.7777 11.718L30.5855 11.3052C30.315 10.7358 29.9236 10.1878 29.4182 9.68243L29.3613 9.63261C28.3221 8.7785 27.2758 8.30163 26.2438 8.22333L25.8096 8.18774L19.1476 17.2413C18.749 17.7822 18.265 18.2591 17.7312 18.6505L22.3363 22.6933C23.0195 22.0954 23.6388 21.4264 24.1939 20.6719Z" fill="url(#paint1_linear_3174_26)"></path><path d="M73.9386 6.24409C75.1699 6.24409 76.0952 5.31169 76.0952 4.11594C76.0952 2.8846 75.1628 1.98779 73.9386 1.98779C72.7428 1.98779 71.8104 2.8846 71.8104 4.11594C71.8104 5.31881 72.7428 6.24409 73.9386 6.24409ZM72.2588 24.1234H75.6183V8.82777H72.2588V24.1234Z" fill="#041339"></path><path d="M90.7503 2.52881V11.198C89.5189 9.51825 87.6328 8.47197 85.3836 8.47197C81.0633 8.47197 77.8533 11.924 77.8533 16.4792C77.8533 21.0344 81.0633 24.4864 85.3836 24.4864C87.6328 24.4864 89.5189 23.4402 90.7503 21.7604V24.1306H94.1098V2.52881H90.7503ZM86.0456 21.2408C83.3195 21.2408 81.3053 19.1696 81.3053 16.4721C81.3053 13.7745 83.3124 11.7033 86.0456 11.7033C88.7431 11.7033 90.7574 13.7745 90.7574 16.4721C90.7503 19.1696 88.7431 21.2408 86.0456 21.2408Z" fill="#041339"></path><path d="M118.288 10.9917V8.50054H114.929V23.7962H118.288V16.3583C118.288 13.5398 120.025 11.7106 123 11.7106V8.25854C121.05 8.25854 119.427 9.27635 118.288 10.9917Z" fill="#041339"></path><path d="M65.8106 16.8064C64.7073 19.3403 62.2304 21.0343 59.2055 21.0343C55.1271 21.0343 52.0096 17.9168 52.0096 13.7744C52.0096 9.63196 55.1271 6.51447 59.2126 6.51447C62.2376 6.51447 64.7145 8.20845 65.8177 10.7423H69.6754C68.3942 6.22977 64.3159 3.06958 59.2126 3.06958C53.0346 3.06958 48.3228 7.68887 48.3228 13.7744C48.3228 19.8599 53.0346 24.4792 59.2126 24.4792C64.323 24.4792 68.4014 21.3119 69.6754 16.8064H65.8106Z" fill="#041339"></path><path d="M108.544 19.2406C107.804 20.358 106.324 21.1196 104.537 21.1196C102.231 21.1196 100.43 19.6534 99.9464 17.4327H112.601C112.658 17.0697 112.694 16.5003 112.694 16.1729C112.694 11.5821 109.185 8.13721 104.509 8.13721C99.861 8.13721 96.3521 11.5892 96.3521 16.1444C96.3521 20.6997 99.861 24.1517 104.509 24.1517C108.16 24.1517 111.078 22.1588 112.274 19.2406H108.544ZM104.502 11.1693C106.722 11.1693 108.523 12.5786 109.057 14.6782H99.9749C100.544 12.5786 102.288 11.1693 104.502 11.1693Z" fill="#041339"></path><defs><linearGradient id="paint0_linear_3174_26" x1="18.8323" y1="6.73399" x2="11.2275" y2="17.3206" gradientUnits="userSpaceOnUse"><stop stop-color="#6EFE66"></stop><stop offset="1" stop-color="white"></stop></linearGradient><linearGradient id="paint1_linear_3174_26" x1="20.9836" y1="19.7434" x2="28.5885" y2="9.1568" gradientUnits="userSpaceOnUse"><stop stop-color="#2DE4FD"></stop><stop offset="1" stop-color="white"></stop></linearGradient></defs></svg> 