<?xml version="1.0" encoding="UTF-8"?><svg id="a" xmlns="http://www.w3.org/2000/svg" viewBox="0 0 526.2 82.89"><defs><style>.b{fill:#f36e24;}.c{fill:#424242;}</style></defs><path class="b" d="M31.49,79.61h-3.17c-5.51,0-9.61-1.29-12.3-3.88-2.69-2.59-4.03-6.51-4.03-11.76v-14.74c0-1.4-.16-2.65-.47-3.75-.31-1.1-.86-2.03-1.65-2.78s-1.83-1.33-3.13-1.74c-1.3-.4-2.94-.6-4.91-.6H0v-5.96H1.84c2.09,0,3.79-.17,5.1-.51,1.31-.34,2.34-.86,3.08-1.56,.74-.7,1.26-1.59,1.54-2.68s.43-2.37,.43-3.86V15.64c0-2.4,.29-4.56,.86-6.49,.57-1.93,1.51-3.57,2.81-4.93s2.98-2.4,5.06-3.13c2.07-.73,4.61-1.09,7.61-1.09h3.17V6h-2.53c-6.63,0-9.94,3.21-9.94,9.64v9.98c0,6.97-3.01,10.9-9.04,11.78,6.08,.6,9.13,4.51,9.13,11.74v14.65c0,6.54,3.28,9.81,9.85,9.81h2.53v6Z"/><path class="c" d="M40.18,44.72c0-3.66,.5-6.91,1.5-9.75,1-2.84,2.42-5.24,4.26-7.2,1.84-1.96,4.05-3.44,6.64-4.46s5.46-1.52,8.63-1.52c1.37,0,2.72,.09,4.05,.26s2.64,.44,3.92,.81V4.78h7.5v60.54h-6.68l-.26-8.14c-2.09,3.03-4.34,5.27-6.77,6.73-2.43,1.46-5.06,2.19-7.88,2.19-2.46,0-4.62-.51-6.49-1.54-1.87-1.03-3.43-2.48-4.67-4.35s-2.18-4.12-2.81-6.75c-.63-2.63-.94-5.54-.94-8.74Zm7.63-.47c0,5.2,.76,9.08,2.29,11.63,1.53,2.56,3.69,3.84,6.49,3.84,1.88,0,3.88-.84,5.98-2.53,2.1-1.68,4.31-4.18,6.62-7.5V29.72c-1.23-.57-2.59-1.01-4.07-1.31-1.49-.3-2.96-.45-4.41-.45-4.06,0-7.22,1.31-9.49,3.94-2.27,2.63-3.41,6.74-3.41,12.34Z"/><path class="c" d="M125.36,41.55c0,1.06-.01,1.94-.04,2.66-.03,.72-.07,1.39-.13,2.01h-30.21c0,4.4,1.23,7.78,3.69,10.13,2.46,2.36,6,3.53,10.62,3.53,1.26,0,2.51-.05,3.77-.15,1.26-.1,2.47-.24,3.64-.41,1.17-.17,2.29-.36,3.36-.58,1.07-.21,2.06-.45,2.98-.71v6.13c-2.03,.57-4.32,1.03-6.88,1.39-2.56,.36-5.21,.54-7.95,.54-3.69,0-6.86-.5-9.51-1.5s-4.83-2.45-6.53-4.35c-1.7-1.9-2.96-4.23-3.77-6.98-.81-2.76-1.22-5.88-1.22-9.36,0-3.03,.44-5.89,1.31-8.59,.87-2.7,2.14-5.07,3.81-7.11,1.67-2.04,3.72-3.66,6.15-4.86,2.43-1.2,5.18-1.8,8.27-1.8s5.66,.47,7.97,1.41c2.31,.94,4.26,2.28,5.85,4.01,1.58,1.73,2.78,3.83,3.6,6.3,.81,2.47,1.22,5.24,1.22,8.29Zm-7.76-1.07c.09-1.91-.1-3.66-.56-5.25-.46-1.58-1.16-2.95-2.12-4.09s-2.15-2.04-3.58-2.68c-1.43-.64-3.09-.96-4.97-.96-1.63,0-3.11,.31-4.46,.94-1.34,.63-2.5,1.51-3.47,2.66-.97,1.14-1.76,2.51-2.36,4.11-.6,1.6-.97,3.36-1.11,5.27h22.62Z"/><path class="c" d="M172.08,41.55c0,1.06-.01,1.94-.04,2.66-.03,.72-.07,1.39-.13,2.01h-30.21c0,4.4,1.23,7.78,3.69,10.13,2.46,2.36,6,3.53,10.62,3.53,1.26,0,2.51-.05,3.77-.15,1.26-.1,2.47-.24,3.64-.41,1.17-.17,2.29-.36,3.36-.58,1.07-.21,2.06-.45,2.98-.71v6.13c-2.03,.57-4.32,1.03-6.88,1.39-2.56,.36-5.21,.54-7.95,.54-3.69,0-6.86-.5-9.51-1.5s-4.83-2.45-6.53-4.35c-1.7-1.9-2.96-4.23-3.77-6.98-.81-2.76-1.22-5.88-1.22-9.36,0-3.03,.44-5.89,1.31-8.59,.87-2.7,2.14-5.07,3.81-7.11,1.67-2.04,3.72-3.66,6.15-4.86,2.43-1.2,5.18-1.8,8.27-1.8s5.66,.47,7.97,1.41c2.31,.94,4.26,2.28,5.85,4.01,1.58,1.73,2.78,3.83,3.6,6.3,.81,2.47,1.22,5.24,1.22,8.29Zm-7.76-1.07c.09-1.91-.1-3.66-.56-5.25-.46-1.58-1.16-2.95-2.12-4.09s-2.15-2.04-3.58-2.68c-1.43-.64-3.09-.96-4.97-.96-1.63,0-3.11,.31-4.46,.94-1.34,.63-2.5,1.51-3.47,2.66-.97,1.14-1.76,2.51-2.36,4.11-.6,1.6-.97,3.36-1.11,5.27h22.62Z"/><path class="c" d="M217.5,43.05c0,3.83-.54,7.17-1.61,10.03s-2.55,5.23-4.43,7.11c-1.88,1.89-4.11,3.3-6.68,4.24s-5.36,1.41-8.36,1.41c-1.37,0-2.73-.07-4.09-.21s-2.73-.38-4.13-.73v17.99h-7.46V22.31h6.64l.47,7.2c2.14-2.94,4.43-5.01,6.86-6.19,2.43-1.19,5.06-1.78,7.88-1.78,2.46,0,4.61,.51,6.47,1.54,1.86,1.03,3.41,2.48,4.67,4.35,1.26,1.87,2.2,4.13,2.83,6.77s.94,5.59,.94,8.85Zm-7.63,.34c0-2.26-.17-4.33-.49-6.21-.33-1.88-.85-3.5-1.56-4.84-.72-1.34-1.63-2.39-2.74-3.15-1.11-.76-2.44-1.13-3.98-1.13-.94,0-1.9,.15-2.87,.45-.97,.3-1.98,.8-3.02,1.5-1.04,.7-2.14,1.63-3.3,2.78-1.16,1.16-2.39,2.59-3.71,4.31v20.87c1.37,.57,2.81,1.02,4.33,1.35s3,.49,4.46,.49c4.03,0,7.18-1.36,9.47-4.09s3.43-6.83,3.43-12.32Z"/><path class="c" d="M266.11,11.73c-3.92-.83-7.29-1.24-10.11-1.24-6.71,0-10.07,3.51-10.07,10.54v7.54h18.85v6.21h-18.85v30.55h-7.59v-30.55h-13.84v-6.21h13.84v-7.11c0-11.45,5.97-17.18,17.91-17.18,2.97,0,6.26,.34,9.85,1.03v6.43Z"/><path class="c" d="M300.4,65.33l-.17-5.78c-2.34,2.31-4.72,3.98-7.13,5.01-2.42,1.03-4.95,1.54-7.61,1.54-2.46,0-4.56-.31-6.3-.94-1.74-.63-3.18-1.49-4.31-2.59-1.13-1.1-1.96-2.39-2.48-3.88-.53-1.48-.79-3.1-.79-4.84,0-4.31,1.61-7.69,4.82-10.13,3.21-2.44,7.96-3.66,14.25-3.66h8.91v-3.77c0-2.54-.81-4.58-2.44-6.1s-4.11-2.29-7.46-2.29c-2.43,0-4.82,.27-7.18,.81-2.36,.54-4.79,1.32-7.3,2.31v-6.73c.94-.34,1.99-.68,3.15-1.01,1.16-.33,2.38-.62,3.66-.88,1.29-.26,2.63-.46,4.03-.62s2.81-.24,4.24-.24c2.6,0,4.94,.29,7.03,.86,2.09,.57,3.85,1.44,5.29,2.61,1.44,1.17,2.55,2.64,3.32,4.41,.77,1.77,1.16,3.86,1.16,6.26v29.65h-6.68Zm-.81-19.58h-9.47c-1.86,0-3.46,.19-4.8,.56-1.34,.37-2.44,.9-3.3,1.59-.86,.68-1.49,1.51-1.91,2.46s-.62,2.04-.62,3.24c0,.83,.13,1.62,.38,2.38,.26,.76,.67,1.43,1.24,2.01s1.31,1.05,2.23,1.39,2.03,.51,3.34,.51c1.71,0,3.68-.52,5.89-1.56,2.21-1.04,4.55-2.69,7.01-4.95v-7.63Z"/><path class="c" d="M351.81,63.74c-1.94,.74-3.93,1.29-5.98,1.65-2.04,.36-4.15,.54-6.32,.54-6.8,0-12.03-1.84-15.7-5.53-3.67-3.68-5.5-9.07-5.5-16.15,0-3.4,.53-6.48,1.58-9.25,1.06-2.77,2.54-5.14,4.46-7.11s4.2-3.49,6.86-4.56c2.66-1.07,5.58-1.61,8.78-1.61,2.23,0,4.31,.16,6.26,.47,1.94,.31,3.8,.83,5.57,1.54v7.11c-1.86-.97-3.75-1.68-5.68-2.12s-3.92-.66-5.98-.66c-1.91,0-3.72,.36-5.42,1.09s-3.19,1.78-4.48,3.15c-1.29,1.37-2.3,3.04-3.04,5.01-.74,1.97-1.11,4.2-1.11,6.68,0,5.2,1.27,9.09,3.79,11.68,2.53,2.59,6.03,3.88,10.52,3.88,2.03,0,3.99-.23,5.89-.69,1.9-.46,3.73-1.14,5.5-2.06v6.94Z"/><path class="c" d="M397.7,64.73c-1.69,.43-3.43,.73-5.23,.92s-3.63,.28-5.48,.28c-5.4,0-9.43-1.22-12.08-3.66-2.66-2.44-3.99-6.19-3.99-11.25V28.56h-12.04v-6.26h12.04V10.48l7.46-1.93v13.75h19.32v6.26h-19.32v21.85c0,3.08,.82,5.39,2.46,6.92,1.64,1.53,4.06,2.29,7.26,2.29,1.37,0,2.87-.11,4.5-.32,1.63-.21,3.33-.55,5.1-1.01v6.43Z"/><path class="c" d="M443.81,43.48c0,3.34-.47,6.41-1.41,9.19-.94,2.79-2.3,5.17-4.07,7.16-1.77,1.99-3.93,3.53-6.47,4.63-2.54,1.1-5.43,1.65-8.65,1.65s-5.85-.48-8.29-1.44c-2.44-.96-4.51-2.36-6.21-4.22-1.7-1.86-3-4.16-3.9-6.9s-1.35-5.9-1.35-9.47c0-3.34,.47-6.39,1.41-9.15,.94-2.76,2.3-5.13,4.07-7.11,1.77-1.99,3.93-3.53,6.47-4.63,2.54-1.1,5.43-1.65,8.65-1.65s5.85,.48,8.29,1.44c2.44,.96,4.51,2.36,6.21,4.2,1.7,1.84,3,4.13,3.9,6.88,.9,2.74,1.35,5.88,1.35,9.43Zm-7.63,.34c0-2.66-.29-4.98-.88-6.96-.59-1.98-1.42-3.64-2.51-4.97s-2.41-2.33-3.96-3c-1.56-.67-3.29-1.01-5.2-1.01-2.23,0-4.13,.43-5.72,1.31-1.58,.87-2.89,2.04-3.9,3.49-1.01,1.46-1.76,3.15-2.23,5.08s-.71,3.95-.71,6.06c0,2.66,.29,4.99,.88,6.98,.59,2,1.42,3.66,2.51,4.99,1.08,1.33,2.4,2.33,3.94,3,1.54,.67,3.28,1.01,5.23,1.01,2.23,0,4.13-.43,5.72-1.31,1.58-.87,2.88-2.04,3.9-3.49,1.01-1.46,1.76-3.15,2.23-5.08s.71-3.96,.71-6.11Z"/><path class="c" d="M452.77,22.31h6.81l.21,7.93c2.54-3.06,5.05-5.27,7.52-6.64,2.47-1.37,4.96-2.06,7.48-2.06,4.46,0,7.83,1.44,10.13,4.33,2.3,2.89,3.36,7.17,3.19,12.85h-7.54c.09-3.77-.46-6.51-1.65-8.2-1.19-1.7-2.92-2.55-5.21-2.55-1,0-2.01,.18-3.02,.54-1.02,.36-2.06,.93-3.13,1.71s-2.21,1.79-3.41,3.02-2.48,2.71-3.86,4.46v27.64h-7.54V22.31Z"/><path class="b" d="M494.67,0h3.17c5.51,0,9.61,1.29,12.3,3.88s4.03,6.51,4.03,11.76v9.9c0,1.4,.16,2.65,.47,3.75,.31,1.1,.86,2.03,1.65,2.78s1.83,1.34,3.15,1.74c1.31,.4,2.96,.6,4.93,.6h1.84v5.96h-1.84c-2.09,0-3.79,.17-5.12,.51-1.33,.34-2.36,.86-3.11,1.56-.74,.7-1.26,1.59-1.54,2.68-.29,1.09-.43,2.37-.43,3.86v15c0,2.4-.29,4.56-.86,6.49-.57,1.93-1.5,3.57-2.79,4.93-1.28,1.36-2.97,2.4-5.06,3.13s-4.63,1.09-7.63,1.09h-3.17v-6h2.57c6.6,0,9.9-3.21,9.9-9.64v-14.83c0-6.97,3.01-10.88,9.04-11.74-6.08-.66-9.13-4.58-9.13-11.78V15.81c0-6.54-3.27-9.81-9.81-9.81h-2.57V0Z"/></svg>