<svg xmlns="http://www.w3.org/2000/svg" xmlns:xlink="http://www.w3.org/1999/xlink" id="logo" x="0px" y="0px" viewBox="0 0 1302.4 161.9" style="enable-background:new 0 0 1302.4 161.9;" xml:space="preserve"><style type="text/css">	.st0{fill:#12294C;}	.st1{fill:#F15F25;}</style><g>	<path class="st0" d="M87.9,40.9H69C67.7,27.8,60,20,46.8,20C36,20,27.5,25,27.5,35.8c0,11.1,6.8,16.3,24.6,20.4  C77.3,62,89.3,72.8,89.3,91.9c0,20.8-18.4,33.4-40.7,33.4c-26.2,0-43-12.4-45.3-35.5h18.9c3,14.1,12.9,21.6,26.4,21.6  c12,0,21.4-6.5,21.4-16.9c0-12-7-18.1-25.6-22.4C22.7,67,8.2,58.8,8.2,38.9c0-20.2,18.1-32.7,39.5-32.7C73.2,6,85.6,21,87.9,40.9z"></path>	<path class="st0" d="M181,83.9h-63.2c1.5,21.1,11.1,28.1,23.1,28.1c10.6,0,18.9-6.5,20.7-17.6H180c-3.8,20.9-20.6,30.9-39.8,30.9  c-23.6,0-41.3-14.9-41.3-46.1c0-27.9,17.8-46.6,43.2-46.6c25.6,0,39.3,19.3,39.3,44.2C181.4,78.2,181.4,80.7,181,83.9z M118,71.1  h44.6c-1.3-16.3-8.5-25.4-21.2-25.4C128.9,45.7,119.9,54.2,118,71.1z"></path>	<path class="st0" d="M273.3,65.3h-18.4c-2.7-13.4-9.8-19.6-20.6-19.6c-12.8,0-22.9,10.1-22.9,32.2c0,23.9,10,34,22.2,34  c10.5,0,17.9-6.3,20.6-18.3h18.6c-4.2,21.1-19.4,31.5-40.2,31.5c-23.1,0-40.5-14.6-40.5-46c0-30,19.6-46.8,42.7-46.8  C257,32.4,271.1,45.9,273.3,65.3z"></path>	<path class="st0" d="M365.9,122.9h-18.1v-15.1l-6.1,11c-7,5-13.4,6.5-22.2,6.5c-18.3,0-28.9-10.3-30.9-22.4  c-0.7-4.5-0.8-8.5-0.8-15.6V34.8h18.1v48.8c0,2.8,0.2,7.6,0.7,12.1c1.3,9.6,7.6,15.9,18.9,15.9c12.8,0,22.4-9.8,22.4-35.4V34.8H366  v88.1H365.9z"></path>	<path class="st0" d="M434.8,33.6v14.3c-16.8-1.2-27.2,7.5-27.2,29.2v45.8h-18.3V34.8h18.3v14.9l7.5-12.1c4-3.2,9.1-5,13.6-5  C431.1,32.6,432.9,32.9,434.8,33.6z"></path>	<path class="st0" d="M467.8,14.5c0,6.1-4.6,10.6-10.8,10.6c-6.1,0-10.6-4.5-10.6-10.6c0-6,4.5-10.5,10.6-10.5S467.8,8.5,467.8,14.5  z"></path>	<rect x="447.9" y="34.8" class="st0" width="18.3" height="88.1"></rect>	<path class="st0" d="M511.3,94.3c0,3,0,5,0.2,7.3c0.7,8.6,4,10.5,15.9,9.3v12.6c-4.6,0.7-9,1-13.4,1c-13.8,0-19.8-5.1-20.6-16.8  c-0.2-3-0.2-6.8-0.2-11.8V48.1h-12.4V35.4h12.4V14.3h18.1v21.1h17.3v12.8h-17.3V94.3z"></path>	<path class="st0" d="M586.5,128.5c-8.1,20.9-17.6,29.2-33.5,29.2c-3.6,0-6,0-8.6-0.5v-13.4c2.2,0.2,4,0.2,5.8,0.2  c8.3,0,13.9-3.5,17.9-13.8l1.3-3.2l-35.5-92.3h20.4l24.2,74.5l24.1-74.5h19.8L586.5,128.5z"></path>	<g>		<path class="st1" d="M738.4,45.2l0.2,1.6h-10.1l-0.3-1.6c-3.6-17.2-14.9-29.3-35-29.3c-23.2,0-40.7,19.8-40.7,50.5   c0,31.4,16.7,50.5,39.6,50.5c20.9,0,32-12.6,35.5-29.9l0.3-1.6H738l-0.2,1.6c-2.9,20.8-17.7,38.1-46.4,38.1   c-30.9,0-50.2-23.9-50.2-58.2c0-34.7,21.6-59.2,52.5-59.2C720.9,7.8,735.4,23.8,738.4,45.2z"></path>		<path class="st1" d="M835.2,79.7c0,25.3-14.6,45.5-42,45.5c-27.5,0-42-20.1-42-45.5c0-25.5,14.6-45.6,42-45.6   C820.6,34.1,835.2,54.2,835.2,79.7z M824,79.7c0-23.5-12.9-37.4-30.9-37.4s-30.9,13.9-30.9,37.4s12.9,37.4,30.9,37.4   C811.1,117.2,824,103.3,824,79.7z"></path>		<path class="st1" d="M965.8,71.9v51h-10.1V76.5c0-7-0.2-11.4-0.7-15.9c-1.5-11.6-7.8-18.3-19.3-18.3c-12.3,0-21.8,9.6-21.8,35.3   v45.3h-10.1V76.5c0-7-0.2-11.4-0.7-15.9c-1.5-11.6-7.8-18.3-19.3-18.3c-12.3,0-21.8,9.6-21.8,35.3v45.3h-10V36.4h10.1v14.9   l4.9-9.6c5.1-5.2,11.8-7.5,20-7.5c13.7,0,22.2,7.4,25.2,18.5l6.7-11c4.9-5.2,11.8-7.5,20-7.5c15.5,0,24.2,9.5,26.2,23.2   C965.7,61.7,965.8,64.8,965.8,71.9z"></path>		<path class="st1" d="M1068,78.6c0,31.4-19.3,46.6-41.2,46.6c-8.5,0-16.8-2.6-22.2-7.7l-5.4-9.3v46.7h-10.1v-119h10.1v16.5l5.7-9.5   c6-5.9,14.6-8.8,24.5-8.8C1053.6,34.1,1068,52.9,1068,78.6z M1056.9,79.9c0-20.8-10-37.6-28.9-37.6c-15.4,0-28.8,9.2-28.8,35.3   v6.5c0,24.7,14.9,33,27.6,33C1044.2,117.2,1056.9,103.3,1056.9,79.9z"></path>		<path class="st1" d="M1135.2,107.2l-4.2,9.2c-6.1,6.1-14.6,8.8-24,8.8c-16,0-27.5-8.3-27.5-24c0-19.8,18.8-29.4,50-29.4h5.6v-3.1   c0-3.9,0-7.2-0.3-10.6c-0.8-10-6.9-15.7-19.3-15.7c-11.9,0-20.4,6.4-21.8,19.8h-10.6c1.1-17,14.1-28,32.4-28   c19.1,0,28.1,8.7,29.4,22.9c0.3,3.8,0.3,7.4,0.3,11.4v30.3c0,7.7,0.5,13.9,1.6,24.2h-10.1L1135.2,107.2z M1135.1,89.5v-10   c-24.4-1.6-44.5,4.1-44.5,20.8c0,11,6.9,16.8,19.5,16.8C1125.1,117.2,1135.1,105.7,1135.1,89.5z"></path>		<path class="st1" d="M1224.9,60.6h-10.6c-2.5-11.9-9.5-18.3-21.1-18.3c-10.5,0-17.5,5.9-17.5,15.4c0,10,8.2,13.9,20.6,17   c20,4.9,29.4,12.1,29.4,26.7c0,15.4-13.1,23.9-30.9,23.9c-17.2,0-30.7-8.2-33.2-27.8h10.5c2.5,14.7,11.8,19.8,23.4,19.8   c11,0,20-5.1,20-15c0-9.6-6.2-14.4-23.1-18.5c-14.9-3.9-27.1-10-27.1-24.9s11.8-24.7,28.8-24.7   C1212.8,34.1,1222.9,45.4,1224.9,60.6z"></path>		<path class="st1" d="M1298.5,60.6h-10.6c-2.5-11.9-9.5-18.3-21.1-18.3c-10.5,0-17.5,5.9-17.5,15.4c0,10,8.2,13.9,20.6,17   c20,4.9,29.4,12.1,29.4,26.7c0,15.4-13.1,23.9-30.9,23.9c-17.2,0-30.7-8.2-33.2-27.8h10.5c2.5,14.7,11.8,19.8,23.4,19.8   c11,0,20-5.1,20-15c0-9.6-6.2-14.4-23.1-18.5c-14.9-3.9-27.1-10-27.1-24.9s11.8-24.7,28.8-24.7   C1286.4,34.1,1296.5,45.4,1298.5,60.6z"></path>	</g></g></svg>